<svg viewBox="0 0 640 360" xmlns="http://www.w3.org/2000/svg" role="img" aria-label="Meals category placeholder image">
  <defs>
    <linearGradient id="gh-meals" x1="0" y1="0" x2="1" y2="1">
      <stop offset="0" stop-color="#f4efe0"/>
      <stop offset="1" stop-color="#e3e9e0"/>
    </linearGradient>
    <pattern id="dh-meals" width="26" height="26" patternUnits="userSpaceOnUse">
      <circle cx="2" cy="2" r="1.3" fill="#cdd9c9" opacity="0.5"/>
    </pattern>
  </defs>
  <rect width="640" height="360" fill="url(#gh-meals)"/>
  <rect width="640" height="360" fill="url(#dh-meals)"/>
  <circle cx="320.0" cy="180.0" r="130" fill="#cdd9c9" opacity="0.5"/>
  <circle cx="320.0" cy="180.0" r="130" fill="none" stroke="#54705f" stroke-width="1.5" opacity="0.35" stroke-dasharray="2 6"/>
  <g transform="translate(256.0, 104.0) scale(4)" fill="none" stroke="#54705f" stroke-width="1.5" stroke-linecap="round" stroke-linejoin="round">
    <path d="M6 15h20a1 1 0 0 1 1 1 9 9 0 0 1-9 9h-4a9 9 0 0 1-9-9 1 1 0 0 1 1-1z"/><path d="M11 15c0-4 2-6 5-7"/>
  </g>
  <text x="26" y="336" font-family="IBM Plex Mono, monospace" font-size="12" letter-spacing="0.08em" fill="#2b2318" opacity="0.35">PHOTO PLACEHOLDER</text>
</svg>